<mxfile host="app.diagrams.net" modified="2023-03-26T03:08:15.050Z" agent="Mozilla/5.0 (Windows NT 10.0; Win64; x64) AppleWebKit/537.36 (KHTML, like Gecko) Chrome/111.0.0.0 Safari/537.36 Edg/111.0.1661.44" etag="mIxZEWdNeJC38-Ahb95c" version="21.1.1" type="github">
  <diagram name="Page-1" id="Vdf08jsdbSCmIhMfUMbp">
    <mxGraphModel dx="896" dy="462" grid="1" gridSize="10" guides="1" tooltips="1" connect="1" arrows="1" fold="1" page="1" pageScale="1" pageWidth="850" pageHeight="1100" math="0" shadow="0">
      <root>
        <mxCell id="0" />
        <mxCell id="1" parent="0" />
        <mxCell id="PjhJN3vcaXPZ_JByUz_V-2" value="House" style="swimlane;fontStyle=0;childLayout=stackLayout;horizontal=1;startSize=26;fillColor=none;horizontalStack=0;resizeParent=1;resizeParentMax=0;resizeLast=0;collapsible=1;marginBottom=0;whiteSpace=wrap;html=1;" vertex="1" parent="1">
          <mxGeometry x="160" y="240" width="140" height="214" as="geometry" />
        </mxCell>
        <mxCell id="PjhJN3vcaXPZ_JByUz_V-3" value="- kitchen: Kitchen" style="text;strokeColor=none;fillColor=none;align=left;verticalAlign=top;spacingLeft=4;spacingRight=4;overflow=hidden;rotatable=0;points=[[0,0.5],[1,0.5]];portConstraint=eastwest;whiteSpace=wrap;html=1;" vertex="1" parent="PjhJN3vcaXPZ_JByUz_V-2">
          <mxGeometry y="26" width="140" height="34" as="geometry" />
        </mxCell>
        <mxCell id="PjhJN3vcaXPZ_JByUz_V-4" value="- bathroom: Bathroom" style="text;strokeColor=none;fillColor=none;align=left;verticalAlign=top;spacingLeft=4;spacingRight=4;overflow=hidden;rotatable=0;points=[[0,0.5],[1,0.5]];portConstraint=eastwest;whiteSpace=wrap;html=1;" vertex="1" parent="PjhJN3vcaXPZ_JByUz_V-2">
          <mxGeometry y="60" width="140" height="30" as="geometry" />
        </mxCell>
        <mxCell id="PjhJN3vcaXPZ_JByUz_V-5" value="- roof: Roof" style="text;strokeColor=none;fillColor=none;align=left;verticalAlign=top;spacingLeft=4;spacingRight=4;overflow=hidden;rotatable=0;points=[[0,0.5],[1,0.5]];portConstraint=eastwest;whiteSpace=wrap;html=1;" vertex="1" parent="PjhJN3vcaXPZ_JByUz_V-2">
          <mxGeometry y="90" width="140" height="26" as="geometry" />
        </mxCell>
        <mxCell id="PjhJN3vcaXPZ_JByUz_V-37" value="- tenant: Person" style="text;strokeColor=none;fillColor=none;align=left;verticalAlign=top;spacingLeft=4;spacingRight=4;overflow=hidden;rotatable=0;points=[[0,0.5],[1,0.5]];portConstraint=eastwest;whiteSpace=wrap;html=1;" vertex="1" parent="PjhJN3vcaXPZ_JByUz_V-2">
          <mxGeometry y="116" width="140" height="30" as="geometry" />
        </mxCell>
        <mxCell id="PjhJN3vcaXPZ_JByUz_V-55" value="- door: Door" style="text;strokeColor=none;fillColor=none;align=left;verticalAlign=top;spacingLeft=4;spacingRight=4;overflow=hidden;rotatable=0;points=[[0,0.5],[1,0.5]];portConstraint=eastwest;whiteSpace=wrap;html=1;" vertex="1" parent="PjhJN3vcaXPZ_JByUz_V-2">
          <mxGeometry y="146" width="140" height="34" as="geometry" />
        </mxCell>
        <mxCell id="PjhJN3vcaXPZ_JByUz_V-56" value="- deck: Deck" style="text;strokeColor=none;fillColor=none;align=left;verticalAlign=top;spacingLeft=4;spacingRight=4;overflow=hidden;rotatable=0;points=[[0,0.5],[1,0.5]];portConstraint=eastwest;whiteSpace=wrap;html=1;" vertex="1" parent="PjhJN3vcaXPZ_JByUz_V-2">
          <mxGeometry y="180" width="140" height="34" as="geometry" />
        </mxCell>
        <mxCell id="PjhJN3vcaXPZ_JByUz_V-6" value="Kitchen" style="swimlane;fontStyle=0;childLayout=stackLayout;horizontal=1;startSize=26;fillColor=none;horizontalStack=0;resizeParent=1;resizeParentMax=0;resizeLast=0;collapsible=1;marginBottom=0;whiteSpace=wrap;html=1;" vertex="1" parent="1">
          <mxGeometry x="450" y="150" width="140" height="78" as="geometry" />
        </mxCell>
        <mxCell id="PjhJN3vcaXPZ_JByUz_V-8" value="- sink: String" style="text;strokeColor=none;fillColor=none;align=left;verticalAlign=top;spacingLeft=4;spacingRight=4;overflow=hidden;rotatable=0;points=[[0,0.5],[1,0.5]];portConstraint=eastwest;whiteSpace=wrap;html=1;" vertex="1" parent="PjhJN3vcaXPZ_JByUz_V-6">
          <mxGeometry y="26" width="140" height="26" as="geometry" />
        </mxCell>
        <mxCell id="PjhJN3vcaXPZ_JByUz_V-9" value="- table: String" style="text;strokeColor=none;fillColor=none;align=left;verticalAlign=top;spacingLeft=4;spacingRight=4;overflow=hidden;rotatable=0;points=[[0,0.5],[1,0.5]];portConstraint=eastwest;whiteSpace=wrap;html=1;" vertex="1" parent="PjhJN3vcaXPZ_JByUz_V-6">
          <mxGeometry y="52" width="140" height="26" as="geometry" />
        </mxCell>
        <mxCell id="PjhJN3vcaXPZ_JByUz_V-11" value="" style="rhombus;whiteSpace=wrap;html=1;fillColor=#000000;" vertex="1" parent="1">
          <mxGeometry x="300" y="270" width="20" height="20" as="geometry" />
        </mxCell>
        <mxCell id="PjhJN3vcaXPZ_JByUz_V-13" value="" style="endArrow=none;html=1;rounded=0;entryX=1;entryY=0.5;entryDx=0;entryDy=0;exitX=0;exitY=0.5;exitDx=0;exitDy=0;" edge="1" parent="1" source="PjhJN3vcaXPZ_JByUz_V-8" target="PjhJN3vcaXPZ_JByUz_V-11">
          <mxGeometry width="50" height="50" relative="1" as="geometry">
            <mxPoint x="440" y="279.00000000000006" as="sourcePoint" />
            <mxPoint x="420" y="310" as="targetPoint" />
          </mxGeometry>
        </mxCell>
        <mxCell id="PjhJN3vcaXPZ_JByUz_V-15" value="Bathroom" style="swimlane;fontStyle=0;childLayout=stackLayout;horizontal=1;startSize=26;fillColor=none;horizontalStack=0;resizeParent=1;resizeParentMax=0;resizeLast=0;collapsible=1;marginBottom=0;whiteSpace=wrap;html=1;" vertex="1" parent="1">
          <mxGeometry x="450" y="244" width="140" height="106" as="geometry" />
        </mxCell>
        <mxCell id="PjhJN3vcaXPZ_JByUz_V-16" value="- sink: String" style="text;strokeColor=none;fillColor=none;align=left;verticalAlign=top;spacingLeft=4;spacingRight=4;overflow=hidden;rotatable=0;points=[[0,0.5],[1,0.5]];portConstraint=eastwest;whiteSpace=wrap;html=1;" vertex="1" parent="PjhJN3vcaXPZ_JByUz_V-15">
          <mxGeometry y="26" width="140" height="26" as="geometry" />
        </mxCell>
        <mxCell id="PjhJN3vcaXPZ_JByUz_V-17" value="- bathtub: Bathtub" style="text;strokeColor=none;fillColor=none;align=left;verticalAlign=top;spacingLeft=4;spacingRight=4;overflow=hidden;rotatable=0;points=[[0,0.5],[1,0.5]];portConstraint=eastwest;whiteSpace=wrap;html=1;" vertex="1" parent="PjhJN3vcaXPZ_JByUz_V-15">
          <mxGeometry y="52" width="140" height="28" as="geometry" />
        </mxCell>
        <mxCell id="PjhJN3vcaXPZ_JByUz_V-18" value="+ field: type" style="text;strokeColor=none;fillColor=none;align=left;verticalAlign=top;spacingLeft=4;spacingRight=4;overflow=hidden;rotatable=0;points=[[0,0.5],[1,0.5]];portConstraint=eastwest;whiteSpace=wrap;html=1;" vertex="1" parent="PjhJN3vcaXPZ_JByUz_V-15">
          <mxGeometry y="80" width="140" height="26" as="geometry" />
        </mxCell>
        <mxCell id="PjhJN3vcaXPZ_JByUz_V-21" value="" style="rhombus;whiteSpace=wrap;html=1;fillColor=#000000;" vertex="1" parent="1">
          <mxGeometry x="300" y="298" width="20" height="20" as="geometry" />
        </mxCell>
        <mxCell id="PjhJN3vcaXPZ_JByUz_V-22" value="" style="endArrow=none;html=1;rounded=0;entryX=1;entryY=0.5;entryDx=0;entryDy=0;exitX=0;exitY=0.5;exitDx=0;exitDy=0;" edge="1" parent="1" source="PjhJN3vcaXPZ_JByUz_V-16" target="PjhJN3vcaXPZ_JByUz_V-21">
          <mxGeometry width="50" height="50" relative="1" as="geometry">
            <mxPoint x="340" y="400" as="sourcePoint" />
            <mxPoint x="390" y="350" as="targetPoint" />
          </mxGeometry>
        </mxCell>
        <mxCell id="PjhJN3vcaXPZ_JByUz_V-23" value="1..*" style="text;html=1;align=center;verticalAlign=middle;resizable=0;points=[];autosize=1;strokeColor=none;fillColor=none;" vertex="1" parent="1">
          <mxGeometry x="410" y="255" width="40" height="30" as="geometry" />
        </mxCell>
        <mxCell id="PjhJN3vcaXPZ_JByUz_V-24" value="Bathtub" style="swimlane;fontStyle=0;childLayout=stackLayout;horizontal=1;startSize=26;fillColor=none;horizontalStack=0;resizeParent=1;resizeParentMax=0;resizeLast=0;collapsible=1;marginBottom=0;whiteSpace=wrap;html=1;" vertex="1" parent="1">
          <mxGeometry x="670" y="350" width="140" height="78" as="geometry" />
        </mxCell>
        <mxCell id="PjhJN3vcaXPZ_JByUz_V-25" value="- colour: String" style="text;strokeColor=none;fillColor=none;align=left;verticalAlign=top;spacingLeft=4;spacingRight=4;overflow=hidden;rotatable=0;points=[[0,0.5],[1,0.5]];portConstraint=eastwest;whiteSpace=wrap;html=1;" vertex="1" parent="PjhJN3vcaXPZ_JByUz_V-24">
          <mxGeometry y="26" width="140" height="26" as="geometry" />
        </mxCell>
        <mxCell id="PjhJN3vcaXPZ_JByUz_V-26" value="- weight: double" style="text;strokeColor=none;fillColor=none;align=left;verticalAlign=top;spacingLeft=4;spacingRight=4;overflow=hidden;rotatable=0;points=[[0,0.5],[1,0.5]];portConstraint=eastwest;whiteSpace=wrap;html=1;" vertex="1" parent="PjhJN3vcaXPZ_JByUz_V-24">
          <mxGeometry y="52" width="140" height="26" as="geometry" />
        </mxCell>
        <mxCell id="PjhJN3vcaXPZ_JByUz_V-28" value="" style="rhombus;whiteSpace=wrap;html=1;fillColor=none;" vertex="1" parent="1">
          <mxGeometry x="590" y="270" width="20" height="20" as="geometry" />
        </mxCell>
        <mxCell id="PjhJN3vcaXPZ_JByUz_V-29" value="" style="endArrow=none;html=1;rounded=0;entryX=0;entryY=0.5;entryDx=0;entryDy=0;exitX=1;exitY=0.5;exitDx=0;exitDy=0;" edge="1" parent="1" source="PjhJN3vcaXPZ_JByUz_V-28" target="PjhJN3vcaXPZ_JByUz_V-25">
          <mxGeometry width="50" height="50" relative="1" as="geometry">
            <mxPoint x="660" y="560" as="sourcePoint" />
            <mxPoint x="710" y="510" as="targetPoint" />
          </mxGeometry>
        </mxCell>
        <mxCell id="PjhJN3vcaXPZ_JByUz_V-30" value="0..1" style="text;html=1;align=center;verticalAlign=middle;resizable=0;points=[];autosize=1;strokeColor=none;fillColor=none;" vertex="1" parent="1">
          <mxGeometry x="630" y="370" width="40" height="30" as="geometry" />
        </mxCell>
        <mxCell id="PjhJN3vcaXPZ_JByUz_V-31" value="Roof" style="swimlane;fontStyle=0;childLayout=stackLayout;horizontal=1;startSize=26;fillColor=none;horizontalStack=0;resizeParent=1;resizeParentMax=0;resizeLast=0;collapsible=1;marginBottom=0;whiteSpace=wrap;html=1;" vertex="1" parent="1">
          <mxGeometry x="450" y="362" width="140" height="78" as="geometry" />
        </mxCell>
        <mxCell id="PjhJN3vcaXPZ_JByUz_V-32" value="- colour: String" style="text;strokeColor=none;fillColor=none;align=left;verticalAlign=top;spacingLeft=4;spacingRight=4;overflow=hidden;rotatable=0;points=[[0,0.5],[1,0.5]];portConstraint=eastwest;whiteSpace=wrap;html=1;" vertex="1" parent="PjhJN3vcaXPZ_JByUz_V-31">
          <mxGeometry y="26" width="140" height="26" as="geometry" />
        </mxCell>
        <mxCell id="PjhJN3vcaXPZ_JByUz_V-33" value="- material: String" style="text;strokeColor=none;fillColor=none;align=left;verticalAlign=top;spacingLeft=4;spacingRight=4;overflow=hidden;rotatable=0;points=[[0,0.5],[1,0.5]];portConstraint=eastwest;whiteSpace=wrap;html=1;" vertex="1" parent="PjhJN3vcaXPZ_JByUz_V-31">
          <mxGeometry y="52" width="140" height="26" as="geometry" />
        </mxCell>
        <mxCell id="PjhJN3vcaXPZ_JByUz_V-35" value="" style="rhombus;whiteSpace=wrap;html=1;fillColor=#000000;" vertex="1" parent="1">
          <mxGeometry x="300" y="330" width="20" height="20" as="geometry" />
        </mxCell>
        <mxCell id="PjhJN3vcaXPZ_JByUz_V-36" value="" style="endArrow=none;html=1;rounded=0;entryX=1;entryY=0.5;entryDx=0;entryDy=0;exitX=0;exitY=0.5;exitDx=0;exitDy=0;" edge="1" parent="1" source="PjhJN3vcaXPZ_JByUz_V-32" target="PjhJN3vcaXPZ_JByUz_V-35">
          <mxGeometry width="50" height="50" relative="1" as="geometry">
            <mxPoint x="310" y="450" as="sourcePoint" />
            <mxPoint x="360" y="400" as="targetPoint" />
          </mxGeometry>
        </mxCell>
        <mxCell id="PjhJN3vcaXPZ_JByUz_V-38" value="Person" style="swimlane;fontStyle=0;childLayout=stackLayout;horizontal=1;startSize=26;fillColor=none;horizontalStack=0;resizeParent=1;resizeParentMax=0;resizeLast=0;collapsible=1;marginBottom=0;whiteSpace=wrap;html=1;" vertex="1" parent="1">
          <mxGeometry x="160" y="558" width="140" height="104" as="geometry" />
        </mxCell>
        <mxCell id="PjhJN3vcaXPZ_JByUz_V-39" value="- savings: double" style="text;strokeColor=none;fillColor=none;align=left;verticalAlign=top;spacingLeft=4;spacingRight=4;overflow=hidden;rotatable=0;points=[[0,0.5],[1,0.5]];portConstraint=eastwest;whiteSpace=wrap;html=1;" vertex="1" parent="PjhJN3vcaXPZ_JByUz_V-38">
          <mxGeometry y="26" width="140" height="26" as="geometry" />
        </mxCell>
        <mxCell id="PjhJN3vcaXPZ_JByUz_V-40" value="- sex: String" style="text;strokeColor=none;fillColor=none;align=left;verticalAlign=top;spacingLeft=4;spacingRight=4;overflow=hidden;rotatable=0;points=[[0,0.5],[1,0.5]];portConstraint=eastwest;whiteSpace=wrap;html=1;" vertex="1" parent="PjhJN3vcaXPZ_JByUz_V-38">
          <mxGeometry y="52" width="140" height="26" as="geometry" />
        </mxCell>
        <mxCell id="PjhJN3vcaXPZ_JByUz_V-41" value="- occupation: String" style="text;strokeColor=none;fillColor=none;align=left;verticalAlign=top;spacingLeft=4;spacingRight=4;overflow=hidden;rotatable=0;points=[[0,0.5],[1,0.5]];portConstraint=eastwest;whiteSpace=wrap;html=1;" vertex="1" parent="PjhJN3vcaXPZ_JByUz_V-38">
          <mxGeometry y="78" width="140" height="26" as="geometry" />
        </mxCell>
        <mxCell id="PjhJN3vcaXPZ_JByUz_V-42" value="" style="rhombus;whiteSpace=wrap;html=1;fillColor=none;" vertex="1" parent="1">
          <mxGeometry x="140" y="362" width="20" height="20" as="geometry" />
        </mxCell>
        <mxCell id="PjhJN3vcaXPZ_JByUz_V-43" value="" style="endArrow=none;html=1;rounded=0;entryX=0;entryY=0.5;entryDx=0;entryDy=0;" edge="1" parent="1" target="PjhJN3vcaXPZ_JByUz_V-42">
          <mxGeometry width="50" height="50" relative="1" as="geometry">
            <mxPoint x="160" y="600" as="sourcePoint" />
            <mxPoint x="140" y="390" as="targetPoint" />
            <Array as="points">
              <mxPoint x="110" y="600" />
              <mxPoint x="110" y="480" />
              <mxPoint x="110" y="372" />
            </Array>
          </mxGeometry>
        </mxCell>
        <mxCell id="PjhJN3vcaXPZ_JByUz_V-44" value="0..*" style="text;html=1;align=center;verticalAlign=middle;resizable=0;points=[];autosize=1;strokeColor=none;fillColor=none;" vertex="1" parent="1">
          <mxGeometry x="120" y="570" width="40" height="30" as="geometry" />
        </mxCell>
        <mxCell id="PjhJN3vcaXPZ_JByUz_V-45" value="1" style="text;html=1;align=center;verticalAlign=middle;resizable=0;points=[];autosize=1;strokeColor=none;fillColor=none;" vertex="1" parent="1">
          <mxGeometry x="110" y="340" width="30" height="30" as="geometry" />
        </mxCell>
        <mxCell id="PjhJN3vcaXPZ_JByUz_V-46" value="RentalAgreement" style="swimlane;fontStyle=0;childLayout=stackLayout;horizontal=1;startSize=26;fillColor=none;horizontalStack=0;resizeParent=1;resizeParentMax=0;resizeLast=0;collapsible=1;marginBottom=0;whiteSpace=wrap;html=1;" vertex="1" parent="1">
          <mxGeometry x="160" y="480" width="140" height="52" as="geometry" />
        </mxCell>
        <mxCell id="PjhJN3vcaXPZ_JByUz_V-48" value="- contractDate: String" style="text;strokeColor=none;fillColor=none;align=left;verticalAlign=top;spacingLeft=4;spacingRight=4;overflow=hidden;rotatable=0;points=[[0,0.5],[1,0.5]];portConstraint=eastwest;whiteSpace=wrap;html=1;" vertex="1" parent="PjhJN3vcaXPZ_JByUz_V-46">
          <mxGeometry y="26" width="140" height="26" as="geometry" />
        </mxCell>
        <mxCell id="PjhJN3vcaXPZ_JByUz_V-54" value="" style="endArrow=none;dashed=1;html=1;rounded=0;entryX=0;entryY=0.5;entryDx=0;entryDy=0;" edge="1" parent="1" target="PjhJN3vcaXPZ_JByUz_V-48">
          <mxGeometry width="50" height="50" relative="1" as="geometry">
            <mxPoint x="110" y="460" as="sourcePoint" />
            <mxPoint x="20" y="460" as="targetPoint" />
          </mxGeometry>
        </mxCell>
        <mxCell id="PjhJN3vcaXPZ_JByUz_V-57" value="" style="rhombus;whiteSpace=wrap;html=1;fillColor=#000000;" vertex="1" parent="1">
          <mxGeometry x="300" y="388" width="20" height="20" as="geometry" />
        </mxCell>
        <mxCell id="PjhJN3vcaXPZ_JByUz_V-58" value="" style="rhombus;whiteSpace=wrap;html=1;fillColor=none;" vertex="1" parent="1">
          <mxGeometry x="300" y="428" width="20" height="20" as="geometry" />
        </mxCell>
        <mxCell id="PjhJN3vcaXPZ_JByUz_V-60" value="" style="endArrow=none;html=1;rounded=0;entryX=1;entryY=0.5;entryDx=0;entryDy=0;exitX=0;exitY=0.5;exitDx=0;exitDy=0;" edge="1" parent="1" source="PjhJN3vcaXPZ_JByUz_V-62" target="PjhJN3vcaXPZ_JByUz_V-57">
          <mxGeometry width="50" height="50" relative="1" as="geometry">
            <mxPoint x="400" y="570" as="sourcePoint" />
            <mxPoint x="450" y="520" as="targetPoint" />
          </mxGeometry>
        </mxCell>
        <mxCell id="PjhJN3vcaXPZ_JByUz_V-61" value="Door" style="swimlane;fontStyle=0;childLayout=stackLayout;horizontal=1;startSize=26;fillColor=none;horizontalStack=0;resizeParent=1;resizeParentMax=0;resizeLast=0;collapsible=1;marginBottom=0;whiteSpace=wrap;html=1;" vertex="1" parent="1">
          <mxGeometry x="450" y="454" width="140" height="78" as="geometry" />
        </mxCell>
        <mxCell id="PjhJN3vcaXPZ_JByUz_V-62" value="- colour: String" style="text;strokeColor=none;fillColor=none;align=left;verticalAlign=top;spacingLeft=4;spacingRight=4;overflow=hidden;rotatable=0;points=[[0,0.5],[1,0.5]];portConstraint=eastwest;whiteSpace=wrap;html=1;" vertex="1" parent="PjhJN3vcaXPZ_JByUz_V-61">
          <mxGeometry y="26" width="140" height="26" as="geometry" />
        </mxCell>
        <mxCell id="PjhJN3vcaXPZ_JByUz_V-63" value="- material: String" style="text;strokeColor=none;fillColor=none;align=left;verticalAlign=top;spacingLeft=4;spacingRight=4;overflow=hidden;rotatable=0;points=[[0,0.5],[1,0.5]];portConstraint=eastwest;whiteSpace=wrap;html=1;" vertex="1" parent="PjhJN3vcaXPZ_JByUz_V-61">
          <mxGeometry y="52" width="140" height="26" as="geometry" />
        </mxCell>
        <mxCell id="PjhJN3vcaXPZ_JByUz_V-65" value="1..*" style="text;html=1;align=center;verticalAlign=middle;resizable=0;points=[];autosize=1;strokeColor=none;fillColor=none;" vertex="1" parent="1">
          <mxGeometry x="405" y="440" width="40" height="30" as="geometry" />
        </mxCell>
        <mxCell id="PjhJN3vcaXPZ_JByUz_V-66" value="Deck" style="swimlane;fontStyle=0;childLayout=stackLayout;horizontal=1;startSize=26;fillColor=none;horizontalStack=0;resizeParent=1;resizeParentMax=0;resizeLast=0;collapsible=1;marginBottom=0;whiteSpace=wrap;html=1;" vertex="1" parent="1">
          <mxGeometry x="450" y="558" width="140" height="78" as="geometry" />
        </mxCell>
        <mxCell id="PjhJN3vcaXPZ_JByUz_V-67" value="- colour: String" style="text;strokeColor=none;fillColor=none;align=left;verticalAlign=top;spacingLeft=4;spacingRight=4;overflow=hidden;rotatable=0;points=[[0,0.5],[1,0.5]];portConstraint=eastwest;whiteSpace=wrap;html=1;" vertex="1" parent="PjhJN3vcaXPZ_JByUz_V-66">
          <mxGeometry y="26" width="140" height="26" as="geometry" />
        </mxCell>
        <mxCell id="PjhJN3vcaXPZ_JByUz_V-68" value="- material: String" style="text;strokeColor=none;fillColor=none;align=left;verticalAlign=top;spacingLeft=4;spacingRight=4;overflow=hidden;rotatable=0;points=[[0,0.5],[1,0.5]];portConstraint=eastwest;whiteSpace=wrap;html=1;" vertex="1" parent="PjhJN3vcaXPZ_JByUz_V-66">
          <mxGeometry y="52" width="140" height="26" as="geometry" />
        </mxCell>
        <mxCell id="PjhJN3vcaXPZ_JByUz_V-70" value="" style="endArrow=none;html=1;rounded=0;entryX=1;entryY=0.5;entryDx=0;entryDy=0;exitX=0;exitY=0.5;exitDx=0;exitDy=0;" edge="1" parent="1" source="PjhJN3vcaXPZ_JByUz_V-66" target="PjhJN3vcaXPZ_JByUz_V-58">
          <mxGeometry width="50" height="50" relative="1" as="geometry">
            <mxPoint x="220" y="530" as="sourcePoint" />
            <mxPoint x="270" y="480" as="targetPoint" />
          </mxGeometry>
        </mxCell>
        <mxCell id="PjhJN3vcaXPZ_JByUz_V-71" value="0..1" style="text;html=1;align=center;verticalAlign=middle;resizable=0;points=[];autosize=1;strokeColor=none;fillColor=none;" vertex="1" parent="1">
          <mxGeometry x="405" y="582" width="40" height="30" as="geometry" />
        </mxCell>
      </root>
    </mxGraphModel>
  </diagram>
</mxfile>
